<?xml version="1.0" encoding="UTF-8" standalone="no"?>
<svg
   xmlns="http://www.w3.org/2000/svg"
   version="1.1"
   id="svg2"
   xml:space="preserve"
   width="900"
   height="1200"><title
     id="title2009">Герб города Архангельск</title><g
     transform="matrix(1.3585017,0,0,-1.3585017,-9.7790728,1208.4846)"
     id="g10"><g
       id="g12"
       transform="matrix(1.4555126,0,0,1.4555126,10.765404,7.5356868)"><g
         transform="translate(430.6787,119.46)"
         id="g180"><path
           id="path182"
           style="opacity:1;fill:#000000;fill-opacity:1;fill-rule:nonzero;stroke:none"
           d="M -430.679,484.06876 V 0.142 c 0,-41.217 33.414,-73.198381 74.631,-73.198381 h 79.41 c 48.604,0 72.731,-44.970999 72.731,-44.970999 0,0 24.127,44.970999 72.731,44.970999 h 79.495 c 41.17,0 71.586519,31.943381 71.586519,73.113381 v 484.01176 z" /></g><g
         transform="translate(19.7334,583.709)"
         id="g20"><path
           id="path22"
           style="opacity:1;fill:#ffe300;fill-opacity:1;fill-rule:nonzero;stroke:none"
           d="m 0,0 v -464.249 c 0,-29.376 23.814,-53.19 53.19,-53.19 h 85.306 c 27.09,0 52.961,-10.778 68.542,-32.606 15.582,21.828 41.337,32.606 68.427,32.606 h 82.291 c 29.376,0 53.189,23.814 53.189,53.19 V 0 Z" /></g><g
         transform="translate(209.1118,247.9659)"
         id="g28"><path
           id="path30"
           style="opacity:1;fill:#ffffff;fill-opacity:1;fill-rule:nonzero;stroke:none"
           d="M 0,0 C -0.42,2.452 4.858,1.635 4.601,-0.327 4.443,-1.534 0.42,-2.452 0,0 m 11.131,-2.992 c -0.603,0.815 -7.28,8.9 -11.981,4.998 -3.574,-2.966 2.136,-8.325 7.087,-4.238 1.495,-0.981 2.652,-1.975 3.049,-2.348 0.398,-0.374 2.332,0.931 1.845,1.588" /></g><g
         transform="translate(184.0386,96.9893)"
         id="g272"><path
           id="path274"
           style="opacity:1;fill:#000000;fill-opacity:1;fill-rule:nonzero;stroke:none"
           d="M 0,0 C -19.75,5.624 -5.417,25.988 5.356,16.95 11.556,11.747 8.417,4.474 0,0 m 218.697,79.231 c 1.411,2.295 4.557,3.408 8.394,2.924 C 223.208,88.439 213.893,85.247 211,81.979 208.108,78.71 198.478,70.024 183.063,67.783 167.656,65.535 145.511,76.746 120.85,80.482 94.593,73.477 63.67,57.785 63.67,57.785 c 0,0 -1.679,10.651 -9.437,16.628 15.507,19.528 9.852,30.163 9.852,30.163 0,0 7.067,-5.525 21.523,-8.717 12.99,-2.878 17.003,-5.502 17.003,-5.502 0,0 36.562,25.038 45.908,31.859 7.75,-1.864 19.988,-1.212 25.505,6.538 -3.46,-1.305 -5.325,-1.865 -10.742,-1.121 10.274,1.872 11.579,9.346 11.579,9.346 0,0 -3.545,-2.432 -7.098,-2.617 8.033,6.169 5.793,9.155 4.857,13.267 -5.778,-12.714 -13.604,-12.584 -18.177,-11.609 -1.106,0.23 -1.942,1.097 -2.164,2.202 -0.537,2.755 0.629,4.396 2.962,6.415 -6.722,2.616 -8.779,-2.986 -11.579,-14.011 -37.214,-6.638 -43.874,-18.86 -43.874,-18.86 0,0 -19.044,14.908 -36.961,17.11 12.898,37.744 -39.608,56.428 -60.348,65.029 -15.577,6.453 -23.779,16.282 -26.895,20.771 -0.176,0.261 -0.567,0.053 -0.46,-0.238 5.148,-13.757 3.821,-23.817 1.013,-34.36 7.473,-5.049 9.714,-14.578 5.601,-25.973 14.011,-8.034 8.97,-18.876 8.97,-18.876 0,0 5.793,-2.424 6.537,-7.841 -11.962,0.928 -27.461,5.601 -27.461,5.601 0,0 -1.497,24.661 -22.613,35.687 -20.686,10.803 -64.154,-3.591 -91.493,-3.391 -0.445,0 -0.598,-0.584 -0.215,-0.806 15.139,-8.762 29.127,-20.487 35.403,-32.794 13.206,-1.62 19.06,-2.495 27.777,-13.957 6.483,-0.124 14.701,-0.868 24.416,-9.339 15.077,2.241 22.796,-4.358 26.41,-8.095 1.872,4.734 40.176,23.541 43.913,29.956 -10.903,3.553 -12.208,8.716 -11.778,10.711 0.437,1.995 6.544,3.177 10.09,6.108 -0.185,2.241 -0.745,4.105 -3.484,6.1 4.236,3.859 11.517,2.616 16.19,5.54 0.621,4.235 7.727,4.864 11.901,4.174 2.364,4.796 -2.179,9.284 1.059,9.407 3.238,0.123 4.604,-11.271 4.604,-11.271 0,0 1.749,-1.182 3.737,-2.556 2.371,0.875 1.12,7.037 3.736,6.231 2.617,-0.813 2.057,-5.233 1.496,-10.712 3.929,-2.056 6.292,-4.925 5.11,-6.791 1.367,-0.813 3.3,-2.739 2.057,-4.918 1.558,-0.314 2.486,-3.115 -0.253,-4.865 1.995,-1.427 0.752,-5.041 -2.118,-5.662 1.558,-2.494 -1.059,-5.11 -3.238,-4.857 1.243,-1.749 -1.059,-4.427 -3.614,-3.737 -1.181,-2.677 -7.036,-1.435 -10.65,1.926 -1.987,-0.867 -7.719,-1.366 -10.213,4.611 -4.113,-0.499 -4.734,-0.997 -7.849,-2.616 -0.813,-3.96 0.222,-7.581 3.506,-9.461 0.238,-0.138 0.169,-0.507 -0.1,-0.552 -5.409,-0.975 -6.813,2.578 -7.765,8.394 -25.282,-7.489 -36.654,-17.985 -45.24,-26.633 -6.269,-6.307 -11.041,-11.64 -18.661,-14.103 3.86,-9.093 8.847,-33.255 22.206,-46.207 -10.251,-3.245 -14.234,-9.845 -15.231,-14.456 2.74,1.374 6.607,1.12 6.607,1.12 0,0 -0.875,-4.98 0,-10.458 1.618,2.118 3.238,2.739 5.977,4.603 0,-1.365 1.742,-7.595 6.223,-12.33 -1.988,20.18 9.722,25.666 21.553,24.792 -2.862,10.212 -14.325,9.215 -14.325,9.215 0,0 -4.612,22.919 -10.834,35.38 10.458,1.366 19.052,12.208 19.052,12.208 0,0 4.734,-22.919 20.18,-43.974 C 17.203,30.393 22.275,20.717 28.037,14.448 26.104,10.42 20.157,0.314 8.939,-0.883 16.466,6.023 18.116,15.315 9.077,22.313 -6.561,34.429 -28.735,9.821 -7.282,-2.839 c -5.094,-1.374 -10.949,-1.804 -16.896,-0.76 -21.177,3.737 -34.751,16.697 -41.357,26.91 -6.599,10.212 -8.218,23.295 -47.213,21.054 15.607,-20.139 32.968,-7.814 34.759,-16.075 -3.614,3.801 -10.471,0.443 -11.479,-2.099 5.995,1.44 17.334,-6.372 20.572,-9.978 3.238,-3.613 18.062,-23.418 45.593,-26.41 8.977,-0.975 17.387,0.714 24.055,3.889 0.867,-0.268 1.772,-0.529 2.724,-0.774 17.226,-3.929 27.615,9.361 31.505,15.722 23.656,-14.525 54.578,13.849 65.873,22.888 28.866,-38.487 52.783,-17.279 66.802,-41.104 3.298,11.591 25.561,10.117 30.261,4.489 0,4.949 -2.799,5.785 -2.799,5.785 0,0 2.055,2.248 8.409,1.029 -0.56,3.368 -3.645,5.516 -8.226,6.353 1.128,1.779 3.177,3.553 8.97,2.9 -2.24,3.921 -4.204,4.765 -10.182,4.765 1.781,1.773 2.993,2.801 8.594,3.736 -9.431,4.114 -21.953,1.122 -33.163,-7.289 -27.369,11.119 -50.826,36.999 -50.826,36.999 0,0 6.262,4.574 10.189,8.311 4.666,-4.39 22.329,-6.722 33.255,-4.766 10.935,1.965 22.982,1.121 22.982,1.121 0,0 2.117,-5.609 8.255,-6.377 0,0 -3.821,7.413 10.221,14.227 5.387,2.616 14.188,2.777 17.602,0.168 0.829,4.098 -3.269,6.185 -3.269,6.185 0,0 1.735,2.094 6.338,0.429 -0.767,4.604 -4.719,4.826 -4.719,4.826 0,0 1.658,2.111 6.776,1.405 -1.243,4.987 -5.916,4.734 -7.627,4.511" /></g><g
         transform="translate(225.6309,239.3214)"
         id="g24"><path
           id="path26"
           style="opacity:1;fill:#ffffff;fill-opacity:1;fill-rule:nonzero;stroke:none"
           d="m 16.255,-4.924 c 2.739,1.75 1.81,4.551 0.253,4.865 1.243,2.179 -0.691,4.105 -2.057,4.918 1.182,1.866 -1.181,4.735 -5.11,6.791 0.56,5.479 1.121,9.899 -1.496,10.712 -2.616,0.806 -1.366,-5.356 -3.737,-6.231 -1.987,1.374 -3.736,2.556 -3.736,2.556 0,0 -1.366,11.394 -4.604,11.271 -3.239,-0.123 1.304,-4.611 -1.06,-9.407 -4.173,0.69 -11.279,0.061 -11.9,-4.174 -4.673,-2.924 -11.954,-1.681 -16.19,-5.54 2.739,-1.995 3.299,-3.859 3.484,-6.1 -3.546,-2.931 -9.653,-4.113 -10.091,-6.108 -0.429,-1.995 0.875,-7.158 11.779,-10.711 -3.737,-6.415 -20.756,-11.794 -49.645,-0.745 -14.072,45.448 -25.106,36.213 -92.675,32.038 19.136,-5.471 46.46,3.772 64.024,-1.706 -20.142,-4.259 -22.543,-9.821 -29.894,-13.957 14.839,1.933 38.28,23.372 47.089,0.253 -18.154,-0.146 -23.142,-7.436 -27.408,-9.714 9.737,0.452 30.638,17.532 35.004,-7.351 -9.468,-1.995 -13.327,-10.712 -13.327,-10.712 10.834,12.33 41.855,2.487 41.979,-0.13 -9.093,-6.1 -17.188,-13.198 -19.061,-17.932 l 1.098,-1.473 c 8.586,8.648 19.958,19.144 45.24,26.633 0.952,-5.816 2.356,-9.369 7.765,-8.394 0.269,0.045 0.338,0.415 0.1,0.552 -3.284,1.88 -4.32,5.501 -3.507,9.461 3.116,1.619 3.737,2.117 7.85,2.616 2.494,-5.977 8.225,-5.478 10.213,-4.611 3.614,-3.361 9.469,-4.603 10.65,-1.926 2.555,-0.69 4.857,1.988 3.613,3.737 2.18,-0.253 4.796,2.363 3.239,4.857 2.87,0.621 4.113,4.235 2.118,5.662" /></g><g
         id="g1113"><g
           id="g276"
           transform="translate(213.7129,247.6387)"><path
             d="M 0,0 C 0.257,1.962 -5.021,2.779 -4.601,0.327 -4.181,-2.125 -0.158,-1.207 0,0"
             style="opacity:1;fill:#000000;fill-opacity:1;fill-rule:nonzero;stroke:none"
             id="path278" /></g><g
           id="g280"
           transform="translate(208.2617,249.9718)"><path
             d="M 0,0 C 4.701,3.902 11.378,-4.183 11.981,-4.998 12.468,-5.655 10.534,-6.96 10.136,-6.586 9.739,-6.213 8.583,-5.219 7.087,-4.238 2.136,-8.325 -3.574,-2.966 0,0 m -12.372,-9.054 c -4.267,-2.455 -8.345,-2.447 -8.345,-3.745 0,-1.37 5.512,-11.305 26.595,-4.702 3.205,1.003 4.266,-1.962 4.671,-2.709 0.405,-0.748 2.896,-0.374 2.46,0.28 -0.436,0.654 -1.526,3.519 0.249,3.644 -0.187,1.682 0.281,2.429 2.647,2.615 -1.401,1.713 -0.529,2.336 1.464,3.021 -2.927,4.453 4.547,1.557 1.868,6.322 -6.726,11.927 -17.501,9.249 -20.21,5.605 -8.751,-0.436 -10.895,-2.271 -10.895,-2.271 0,0 3.343,-2.766 2.976,-5.941 l -0.613,-0.399 c -0.196,-0.127 -0.142,-0.424 0.085,-0.477 0.759,-0.174 1.937,-0.638 2.226,-1.858 0.436,-1.838 -3.083,-1.238 -1.868,-4.437 -4.082,0.199 -3.762,1.858 -2.853,4.687 0.088,0.273 -0.208,0.509 -0.457,0.365"
             style="opacity:1;fill:#000000;fill-opacity:1;fill-rule:nonzero;stroke:none"
             id="path282" /></g></g><g
         transform="translate(239.3516,505.9693)"
         id="g88"><path
           id="path90"
           style="opacity:1;fill:#ffffff;fill-opacity:1;fill-rule:nonzero;stroke:none"
           d="M 1.3450584,1.3457584 0.67222918,4.1330608 -15.1436,6.0906267 -27.410166,4.5367584 -28.135561,-4.5446367 c -0.007,-15.7870003 13.126527,-19.8932243 13.126527,-19.8932243 0,0 10.9783948,2.760566 13.8283948,12.602566 6.582,6.165 6.5812634,13.3156192 2.6602634,13.3156192" /></g><g
         transform="translate(325.875,533.9044)"
         id="g288"><path
           id="path290"
           style="opacity:1;fill:#000000;fill-opacity:1;fill-rule:nonzero;stroke:none"
           d="m -113.717,-33.019 -0.042,4.232 c 0.131,0.676 0.749,0.987 1.12,1.06 2.407,0.476 5.692,0.346 6.161,-2.404 -3.229,0.32 -5.499,0.32 -5.499,-2.174 1.501,-0.418 3.798,-0.496 5.419,-0.492 v -6.022 c 0,-2.342 4.783,-1.642 7.534,-0.597 0.422,0.161 0.302,0.789 -0.15,0.789 h -5.481 v 5.875 0.575 4.892 c -5.413,1.542 -8.528,1.314 -9.112,-0.645 l -0.032,3.186 12.133,1.823 15.143,-1.823 v -3.191 c 3.92,0 4.46,-4.863 -2.123,-11.028 -2.849,-9.842 -13.02,-12.468 -13.02,-12.468 0,0 -12.058,2.626 -12.051,18.412 M 57.297,25.301 C 35.712,22.058 -25.007,22.33 -42.389,4.548 c -19.492,-19.939 -8.632,-46.976 -35.292,-55.603 0,0 -0.004,0 -0.005,10e-4 -4.65,3.18 -7.749,7.14 -9.327,9.739 9.623,9.05 5.632,14.605 5.632,14.605 0,12.452 -3.879,22.825 -12.365,30.306 -0.001,10e-4 -0.001,0.004 10e-4,0.004 19.218,6.493 19.946,-9.589 32.281,-5.323 0.003,0.001 0.006,0.001 0.009,0 13.773,-5.649 8.347,15.249 -9.377,24.011 -13.904,6.873 -25.751,-5.981 -27.796,-13.168 0,0 -6.657,19.787 -26.176,13.833 -17.331,-5.286 -27.881,-31.688 -10.999,-24.676 0.003,0.001 0.007,0.001 0.01,-10e-4 10.537,-6.052 11.755,14.912 31.956,5.067 v 0 c -4.029,-2.88 -11.756,-10.328 -12.163,-26.09 l -0.006,-0.001 v -0.181 c -0.014,-0.624 -0.02,-1.255 -0.011,-1.905 l 0.008,-0.132 -0.01,-8.076 c -0.002,-5.289 1.282,-9.232 2.969,-12.143 -1.757,-1.654 -3.397,-2.704 -5.22,-3.881 0,0 -0.01,-0.002 -0.015,-0.004 -27.664,1.075 -17.422,39.34 -37.239,54.251 -18.286,13.758 -74.171,17.995 -95.539,20.537 0,0 4.034,-14.622 18.256,-19.759 -5.308,-5.695 8.641,-14.129 15.932,-17.627 -3.763,-4.525 8.175,-12.548 16.407,-15.561 -3.086,-5.507 9.924,-12.419 13.202,-13.85 -1.009,-2.475 1.83,-4.754 4.654,-6.876 -9.879,-2.301 -22.636,-3.404 -26.184,-2.062 1.534,3.549 -0.336,5.899 -2.878,7.242 -2.54,1.342 -5.465,1.103 -7.718,-1.464 l -0.007,-0.003 c -3.97,0.784 -6.229,-1.671 -7.658,-3.978 -0.313,-0.505 -0.78,-0.884 -1.327,-1.117 -2.115,-0.904 -2.971,-2.921 -3.621,-4.573 -0.134,-0.339 -0.323,-0.657 -0.592,-0.903 -1.835,-1.673 -1.282,-4.023 -1.281,-4.028 0,0 -4.236,3.357 -7.817,-1.343 -2.693,-3.535 1.427,-6.832 4.772,-9.041 -0.873,-3.389 -3.812,-5.058 -8.512,-11.819 -3.356,-4.828 -3.117,-11.414 -5.995,-17.025 -2.027,-3.952 -4.076,-5.371 -6.761,-9.687 -2.686,-4.316 -1.487,-8.392 -3.885,-13.044 -2.398,-4.652 -5.707,-6.666 -8.009,-11.27 -1.4,-2.801 -1.343,-6.81 -2.541,-9.592 -0.897,-2.08 -3.328,-5.492 -4.906,-8.737 -0.385,-0.79 0.461,-1.631 1.249,-1.243 3.909,1.923 8.492,5.27 10.658,8.062 2.13,2.746 1.151,2.494 4.556,7.721 3.405,5.228 7.241,7.098 9.927,10.503 2.685,3.405 1.812,5.926 4.564,10.356 2.453,3.951 5.075,4.542 8.097,9.642 4,6.753 4.023,7.862 6.469,12.227 2.446,4.363 7.915,5.995 9.669,15.282 0,0 0.004,0.005 0.007,0.003 5.56,-3.066 9.128,-2.91 10.998,0.004 1.87,2.914 0.208,5.701 -3.757,8.323 9.112,5.243 20.909,-1.183 39.708,2.749 6.33,-3.505 26.087,-12.052 37.981,-12.692 l 0.001,-10e-4 c 11.997,-20.322 7.439,-36.338 12.681,-48.467 -14.086,-8.941 -37.651,-27.591 -30.7,-33.545 -7.162,-14.488 -16.35,-36.919 -8.865,-45.168 7.485,-8.248 28.51,8.345 65.661,-1.438 0,0 11.284,-21.664 18.765,-25.252 0.597,-0.286 1.296,-0.32 1.927,-0.121 4.17,1.313 5.582,6.201 4.865,12.138 -0.889,7.352 -4.996,16.304 -3.168,22.384 0,0 6.333,-9.005 11.945,-16.631 6.561,-28.486 22.544,-35.805 24.88,-40.027 2.334,-4.22 0.672,-7.111 3.88,-9.748 0.003,-0.002 0.004,-0.005 0.004,-0.008 -0.624,-7.86 6.474,-8.436 9.351,-12.248 1.239,-1.639 2.958,-4.893 5.788,-7.691 6.969,-6.889 13.179,-7.367 15.505,-6.816 2.409,0.572 10.94,8.64 -12.181,31.994 -0.95,0.959 -1.632,2.154 -1.993,3.453 -7.779,28.054 -15.607,43.23 -22.343,50.763 -1.319,10.055 -4.365,21.416 -6.89,29.766 6.468,2.702 -6.995,22.299 -13.514,32.897 -0.002,0.005 -0.004,0.01 -0.006,0.014 2.442,0.746 4.946,1.772 7.492,3.112 9.968,5.246 19.493,14.504 26.818,26.071 15.233,24.052 16.301,49.992 2.777,60.129 0.164,0.102 0.323,0.189 0.473,0.252 8.991,3.816 16.011,9.676 14.325,12.571 4.102,0.594 17.415,8.998 13.202,13.85 7.216,2.16 20.125,11.254 16.412,15.556 -0.002,0.003 -0.001,0.006 -0.001,0.006 15.645,6.602 20.028,13.348 15.928,17.626 18.335,3.76 21.684,19.342 21.684,19.342" /></g><g
         transform="translate(181.7808,349.3834)"
         id="g96"><path
           id="path98"
           style="opacity:1;fill:#ffffff;fill-opacity:1;fill-rule:nonzero;stroke:none"
           d="m 0,0 c 2.816,4.255 8.939,5.947 14.648,6.077 0.537,0.852 1.174,1.864 1.588,2.532 C 14.149,9.86 12.063,11.172 9.952,12.5 4.358,16.021 -1.404,19.658 -7.772,22.658 -32.702,-29.725 -12.491,-21.408 -2.685,-19.758 1.09,-9.975 9.929,-1.826 16.244,3.069 8.571,4.159 3.872,2.313 0,0" /></g><g
         transform="translate(281.085,320.5479)"
         id="g100"><path
           id="path102"
           style="opacity:1;fill:#ffffff;fill-opacity:1;fill-rule:nonzero;stroke:none"
           d="m 0,0 c 0,0 -1.588,19.62 -8.363,38.473 -1.152,0.207 -2.332,0.315 -3.569,0.315 -5.908,0 -12.046,-2.441 -18.545,-5.034 -2.355,-0.936 -4.734,-1.888 -7.167,-2.739 6.745,-12.715 25.559,-37.061 25.559,-37.061 0,0 -2.302,0.967 -3.744,1.918 0.767,-4.121 1.635,-7.381 5.663,-14.379 C -8.823,3.069 -4.795,-1.726 8.633,-6.614 5.947,-0.859 4.888,0.476 1.635,4.028 1.819,1.151 0,0 0,0" /></g><g
         transform="translate(135.0356,519.3839)"
         id="g112"><path
           id="path114"
           style="opacity:1;fill:#ffffff;fill-opacity:1;fill-rule:nonzero;stroke:none"
           d="m 0,0 c 0,0 -7.015,4.68 -13.633,7.05 -0.299,0.107 -0.221,0.541 0.097,0.542 5.518,0.026 8.566,4.105 8.566,4.105 0,0 -19.729,0.949 -34.135,7.424 -1.219,0.547 -1.749,-0.824 -1.248,-1.88 C -33.851,3.562 0,0 0,0" /></g><g
         transform="translate(111.8374,544.5357)"
         id="g108"><path
           id="path110"
           style="opacity:1;fill:#ffffff;fill-opacity:1;fill-rule:nonzero;stroke:none"
           d="M 0,0 C -0.308,0.094 -0.25,0.538 0.072,0.548 8.946,0.84 11.479,5.236 11.479,5.236 7.923,6.409 -31.737,11.562 -31.737,11.562 -21.5,-9.184 16.844,-10.631 16.844,-10.631 14.072,-7.769 7.339,-2.259 0,0" /></g><g
         transform="translate(188.2432,487.0587)"
         id="g148"><path
           id="path150"
           style="opacity:1;fill:#ffffff;fill-opacity:1;fill-rule:nonzero;stroke:none"
           d="M 0,0 C 0,0 -11.197,2.306 -14.22,-0.726 -9.104,-0.794 -2.902,-1.231 1.36,-1.959 0.571,-0.785 0,0 0,0" /></g><g
         transform="translate(147.0503,486.6607)"
         id="g124"><path
           id="path126"
           style="opacity:1;fill:#ffffff;fill-opacity:1;fill-rule:nonzero;stroke:none"
           d="m 0,0 c 2.151,0.302 6.124,1.063 8.604,0.515 0.977,1.168 0.164,3.136 0.164,3.136 0,0 -8.46,0.729 -13.532,2.025 C -5.37,5.831 -5.797,5.117 -5.395,4.638 -3.872,2.825 -2.01,1.306 0,0" /></g><g
         transform="translate(153.6885,492.7881)"
         id="g120"><path
           id="path122"
           style="opacity:1;fill:#ffffff;fill-opacity:1;fill-rule:nonzero;stroke:none"
           d="m 0,0 c -2.209,2.564 -6.685,4.549 -11.5,6.069 -0.271,0.085 -0.265,0.482 0.013,0.542 2.493,0.542 3.815,3.079 3.815,3.079 0,0 -9.526,0.937 -17.276,2.926 -0.561,0.144 -1.01,-0.485 -0.691,-0.968 C -18.862,1.383 -4.255,0.581 0,0" /></g><g
         transform="translate(111.5073,519.7476)"
         id="g116"><path
           id="path118"
           style="opacity:1;fill:#ffffff;fill-opacity:1;fill-rule:nonzero;stroke:none"
           d="m 0,0 c 8.14,-11.483 30.049,-13.977 32.353,-14.291 -2.76,2.802 -7.666,5.07 -13.27,6.965 -0.294,0.099 -0.236,0.524 0.075,0.549 4.071,0.326 6.321,3.027 6.321,3.027 0,0 -15.555,2.131 -24.777,4.722 C 0.128,1.133 -0.345,0.486 0,0" /></g><g
         transform="translate(120.2603,544.211)"
         id="g128"><path
           id="path130"
           style="opacity:1;fill:#ffffff;fill-opacity:1;fill-rule:nonzero;stroke:none"
           d="m 0,0 c -0.157,-0.258 -0.089,-0.601 0.137,-0.802 8.279,-7.359 13.202,-10.031 29.467,-12.977 -2.147,4.299 -8.915,8.906 -10.981,10.136 -0.224,0.133 -0.164,0.469 0.091,0.516 1.668,0.309 5.372,1.499 5.613,5.981 C 24.327,2.854 5.272,8.708 0,0" /></g><g
         transform="translate(153.4219,509.3028)"
         id="g136"><path
           id="path138"
           style="opacity:1;fill:#ffffff;fill-opacity:1;fill-rule:nonzero;stroke:none"
           d="m 0,0 c 1.201,0.268 2.963,1.134 3.927,3.838 0,0 -18.015,3.971 -20.859,-0.365 -0.19,-0.289 -0.072,-0.686 0.223,-0.868 6.459,-3.985 11.69,-7.007 26.434,-8.621 -2.248,2.488 -7.402,4.601 -9.763,5.478 C -0.303,-0.439 -0.276,-0.062 0,0" /></g><g
         transform="translate(161.5151,496.0645)"
         id="g140"><path
           id="path142"
           style="opacity:1;fill:#ffffff;fill-opacity:1;fill-rule:nonzero;stroke:none"
           d="m 0,0 c -0.272,0.081 -0.27,0.463 0.002,0.542 1.282,0.372 3.234,1.331 3.502,3.754 0,0 -13.056,2.806 -18.157,-0.622 C -15.079,3.388 -15.035,2.76 -14.567,2.55 -8.802,-0.033 -3.947,-3.71 9.556,-4.59 8.147,-2.581 2.445,-0.722 0,0" /></g><g
         transform="translate(177.709,494.5591)"
         id="g152"><path
           id="path154"
           style="opacity:1;fill:#ffffff;fill-opacity:1;fill-rule:nonzero;stroke:none"
           d="m 0,0 c -0.249,0.097 -0.235,0.453 0.02,0.528 0.872,0.258 2.068,0.947 2.624,2.783 0,0 -13.543,3.53 -14.834,-0.899 -0.083,-0.286 0.052,-0.592 0.316,-0.73 5.152,-2.701 13.969,-5.64 20.03,-6.407 C 6.655,-2.749 2.052,-0.798 0,0" /></g><g
         transform="translate(171.1025,506.6544)"
         id="g156"><path
           id="path158"
           style="opacity:1;fill:#ffffff;fill-opacity:1;fill-rule:nonzero;stroke:none"
           d="m 0,0 c 1.305,0.333 3.488,1.183 3.347,3.115 0,0 -14.656,4.508 -17.014,-0.172 -0.148,-0.295 -0.029,-0.66 0.256,-0.827 C -7.698,-1.228 -1.077,-4.125 7.502,-5.671 6.274,-3.267 1.88,-1.297 -0.037,-0.532 -0.291,-0.43 -0.266,-0.067 0,0" /></g><g
         transform="translate(146.2725,522.9986)"
         id="g132"><path
           id="path134"
           style="opacity:1;fill:#ffffff;fill-opacity:1;fill-rule:nonzero;stroke:none"
           d="m 0,0 c 1.483,0.246 3.922,1.096 4.447,4.005 0,0 -18.571,4.258 -23.313,-0.655 -0.284,-0.294 -0.193,-0.784 0.164,-0.986 5.041,-2.846 12.665,-6.67 27.991,-8.848 -3.333,3.177 -7.427,5.139 -9.352,5.951 C -0.322,-0.424 -0.277,-0.046 0,0" /></g><g
         transform="translate(165.5156,519.7222)"
         id="g160"><path
           id="path162"
           style="opacity:1;fill:#ffffff;fill-opacity:1;fill-rule:nonzero;stroke:none"
           d="m 0,0 c 1.51,0.189 4.041,0.806 4.288,2.82 0,0 -15.633,5.646 -18.921,0.366 -0.177,-0.283 -0.106,-0.657 0.161,-0.855 4.33,-3.209 9.482,-6.282 21.991,-8.767 -0.966,2.603 -5.524,4.947 -7.602,5.9 C -0.34,-0.417 -0.281,-0.035 0,0" /></g><g
         transform="translate(171.8979,486.3404)"
         id="g144"><path
           id="path146"
           style="opacity:1;fill:#ffffff;fill-opacity:1;fill-rule:nonzero;stroke:none"
           d="m 0,0 c 0.543,0.596 0.961,1.45 0.922,2.688 0,0 -13.244,2.484 -15.176,-1.656 -0.039,-0.084 -0.053,-0.376 -0.053,-0.465 2.6,-0.409 8.833,-2.092 8.833,-2.092 C -4.849,0.158 -2.302,-0.019 0,0" /></g><g
         transform="translate(144.2197,539.7183)"
         id="g164"><path
           id="path166"
           style="opacity:1;fill:#ffffff;fill-opacity:1;fill-rule:nonzero;stroke:none"
           d="m 0,0 c 6.575,-6.788 16.311,-11.398 25.016,-13.558 0,0 -2.382,5.292 -8.783,9.059 -0.284,0.167 -0.094,0.606 0.224,0.52 17.453,-4.7 15.63,-40.962 33.01,-49.569 C 42.114,-47.474 37.423,-29.54 35.33,-21.905 33.238,-14.27 29.134,-5.911 21.021,-0.63 13.138,4.502 3.411,5.571 -0.071,0.809 -0.249,0.564 -0.21,0.217 0,0" /></g><g
         transform="translate(330.541,550.6622)"
         id="g32"><path
           id="path34"
           style="opacity:1;fill:#ffffff;fill-opacity:1;fill-rule:nonzero;stroke:none"
           d="m 0,0 c 0,0 3.232,-5.287 12.105,-5.578 0.323,-0.011 0.38,-0.454 0.073,-0.548 -7.339,-2.259 -14.072,-7.769 -16.844,-10.632 0,0 46.051,5.807 51.847,21.38 C 47.181,4.622 12.267,1.978 0,0" /></g><g
         transform="translate(184.9648,535.0733)"
         id="g84"><path
           id="path86"
           style="opacity:1;fill:#ffffff;fill-opacity:1;fill-rule:nonzero;stroke:none"
           d="m 0,0 c 9.655,1.534 8.44,8.121 17.84,11.701 0,0 -7.162,-5.947 -9.975,-12.277 10.55,1.407 12.5,17.84 23.562,11.446 C 25.705,11.573 24.042,9.453 22.251,6.394 31.076,9.208 39.388,3.645 39.388,3.645 30.5,31.843 5.371,17.136 0,0" /></g><g
         transform="translate(153.1377,468.7012)"
         id="g104"><path
           id="path106"
           style="opacity:1;fill:#ffffff;fill-opacity:1;fill-rule:nonzero;stroke:none"
           d="m 0,0 c 5.308,-2.854 9.9,-4.371 12.192,-5.027 0.761,-0.218 1.504,0.383 1.452,1.173 L 12.635,11.54 c -0.062,0.953 -0.707,1.769 -1.621,2.043 -2.287,0.687 -6.66,1.885 -9.623,1.987 -4.172,0.144 -27,-4.364 -34.673,-3.597 -3.907,0.391 -5.403,2.254 -11.19,5.451 -5.786,3.198 -7.21,-0.612 -8.457,-2.082 -1.246,-1.471 -2.093,-1.278 -3.052,-2.589 -0.96,-1.311 -0.768,-2.362 -1.503,-3.545 -0.587,-1.126 -2.414,-1.943 0.53,-5.211 0.296,0.549 0.386,0.719 0.659,1.202 -0.577,1.115 -0.142,2.05 0.518,2.012 3.832,-0.217 9.399,-2.375 12.908,-4.605 1.24,-0.788 -0.613,-1.893 -2.025,-2.003 -0.538,-0.984 -0.831,-1.469 -1.452,-2.508 3.458,-0.039 6.543,1.594 10.986,1.841 6.906,0.384 23.467,-2.973 37.726,2.149 C 2.366,2.085 1.471,0.704 0,0" /></g><g
         transform="translate(236.2578,487.6978)"
         id="g92"><path
           id="path94"
           style="opacity:1;fill:#ffffff;fill-opacity:1;fill-rule:nonzero;stroke:none"
           d="m 0,0 c -5.515,-6.162 -12.003,-7.591 -12.003,-7.591 0,0 -4.722,1.129 -7.635,3.97 -0.312,-2.163 -1.32,-9.981 -1.799,-16.632 -0.067,-0.933 0.585,-1.763 1.509,-1.906 4.26,-0.658 12.851,-1.529 18.042,-1.689 1.383,-0.043 2.508,1.095 2.457,2.478 C 0.376,-16.029 -0.084,-5.629 0,0" /></g><g
         transform="translate(109.7793,488.1407)"
         id="g200"><path
           id="path202"
           style="opacity:1;fill:#ff0000;fill-opacity:1;fill-rule:nonzero;stroke:none"
           d="m 0,0 c 1.857,-1.026 3.305,-1.931 4.468,-2.658 0.21,-0.132 0.4,-0.25 0.594,-0.37 0.087,0.275 0.168,0.545 0.241,0.808 C 5.535,-1.37 4.859,-0.223 3.696,0.507 3.383,0.704 3.054,0.892 2.726,1.062 1.546,1.672 0.286,1.678 -0.291,1.059 -0.484,0.852 -0.671,0.646 -0.857,0.439 -0.576,0.304 -0.292,0.161 0,0" /></g><g
         transform="translate(105.833,470.4595)"
         id="g196"><path
           id="path198"
           style="opacity:1;fill:#ff0000;fill-opacity:1;fill-rule:nonzero;stroke:none"
           d="M 0,0 C -3.084,1.728 -4.995,2.332 -6.541,2.689 -6.787,2.747 -7.041,2.636 -7.166,2.417 -7.372,2.054 -7.502,1.801 -7.811,1.223 l 6.9,-3.942 c 0.493,0.817 0.778,1.305 1.132,1.942 C 0.372,-0.505 0.272,-0.153 0,0" /></g><g
         transform="translate(86.6914,469.1827)"
         id="g192"><path
           id="path194"
           style="opacity:1;fill:#ff0000;fill-opacity:1;fill-rule:nonzero;stroke:none"
           d="m 0,0 c 4.333,-3.303 10.708,-6.854 10.708,-6.854 0,0 6.201,-3.846 11.194,-6.028 0.369,-0.161 0.754,-0.239 1.129,-0.239 0.806,0 1.562,0.359 1.998,1.017 0.172,0.26 0.327,0.539 0.458,0.822 0.47,1.016 0.091,2.268 -0.904,2.986 -5.968,4.3 -10.664,6.901 -10.664,6.901 0,0 -4.555,2.84 -11.214,5.966 C 2.329,4.748 1.934,4.833 1.55,4.833 0.8,4.833 0.093,4.509 -0.344,3.911 -0.527,3.659 -0.696,3.388 -0.839,3.111 -1.372,2.085 -1.008,0.769 0,0" /></g><g
         transform="translate(97.8149,460.7452)"
         id="g188"><path
           id="path190"
           style="opacity:1;fill:#ff0000;fill-opacity:1;fill-rule:nonzero;stroke:none"
           d="m 0,0 c 0,0 5.843,-2.773 -0.019,-11.095 -3.003,-4.518 -4.014,-3.796 -6.155,-7.217 -2.141,-3.422 -3.412,-8.019 -6.414,-12.471 -3.003,-4.453 -4.428,-4.895 -7.5,-9.607 -3.074,-4.712 -3.109,-8.735 -5.297,-11.442 -2.188,-2.707 -4.941,-4.891 -7.924,-8.565 -2.983,-3.674 -3.444,-6.72 -5.899,-9.814 -1.948,-2.457 -5.424,-4.411 -7.574,-6.242 -0.272,-0.233 -0.654,0.077 -0.49,0.396 1.405,2.744 2.639,4.311 3.71,6.465 1.285,2.585 1.805,7.967 3.022,10.422 1.218,2.456 4.381,5.609 7.308,9.608 2.926,4 2.684,9.777 4.516,13.655 1.831,3.878 4.831,5.671 7.404,10.906 2.571,5.234 2.824,10.229 5.786,15.655 2.622,4.802 6.27,6.344 8.264,9.729 0.604,1.024 1.739,1.646 2.905,1.541 0.757,-0.069 1.313,-0.295 2.075,-0.673 -2.079,-8.677 -7.174,-9.414 -10.003,-14.647 -2.829,-5.232 -2.741,-9.451 -4.699,-13.263 -1.958,-3.813 -5.1,-6.123 -7.582,-10.32 -2.482,-4.197 -3.217,-10.486 -3.217,-10.486 0,0 2.306,7.444 4.426,10.022 2.121,2.578 4.621,4.277 7.303,8.797 2.683,4.52 2.169,7.736 5.391,13.291 C -7.44,-9.802 -1.689,-8.486 0,0" /></g><g
         transform="translate(269.5654,478.0958)"
         id="g256"><path
           id="path258"
           style="opacity:1;fill:#0000ff;fill-opacity:1;fill-rule:nonzero;stroke:none"
           d="M 0,0 C -1.128,0.593 -2.289,1.103 -3.475,1.529 -5.147,2.132 -6.973,1.112 -7.367,-0.622 -7.709,-2.125 -8.064,-3.953 -8.38,-6.058 -5.665,-3.739 -2.856,-1.713 0,0" /></g><g
         transform="translate(256.8232,467.9766)"
         id="g260"><path
           id="path262"
           style="opacity:1;fill:#0000ff;fill-opacity:1;fill-rule:nonzero;stroke:none"
           d="m 0,0 c 0.396,4.385 1.044,7.958 1.641,10.551 0.346,1.505 -0.741,2.963 -2.283,3.05 -0.798,0.045 -1.589,0.065 -2.37,0.062 C -4.656,13.658 -6.053,12.482 -6.371,10.869 -7.909,3.076 -7.429,-3.552 -6.761,-7.722 -4.623,-4.954 -2.359,-2.372 0,0" /></g><g
         transform="translate(238.6455,487.8663)"
         id="g212"><path
           id="path214"
           style="opacity:1;fill:#0000ff;fill-opacity:1;fill-rule:nonzero;stroke:none"
           d="m 0,0 v -7.244 c 0.722,0.691 1.581,1.236 2.548,1.589 0.706,0.26 1.466,0.499 2.256,0.714 C 1.535,-2.394 0,0 0,0" /></g><g
         transform="translate(238.873,474.775)"
         id="g224"><path
           id="path226"
           style="opacity:1;fill:#0000ff;fill-opacity:1;fill-rule:nonzero;stroke:none"
           d="m 0,0 c 0.462,-7.129 1.212,-11.741 2.523,-16.856 0.243,-0.943 1.074,-1.612 2.046,-1.642 0.634,-0.019 1.308,-0.025 2.012,-0.014 1.153,0.019 2.035,1.043 1.88,2.186 C 7.221,-7.242 7.046,-0.102 7.072,3.74 7.081,4.965 5.901,5.826 4.726,5.481 4.195,5.326 3.691,5.161 3.219,4.987 1.159,4.232 -0.142,2.188 0,0" /></g><g
         transform="translate(234.2695,512.8819)"
         id="g204"><path
           id="path206"
           style="opacity:1;fill:#0000ff;fill-opacity:1;fill-rule:nonzero;stroke:none"
           d="m 0,0 c 0.128,1.995 0.221,8.688 -3.123,18.61 0,0 6.49,-8.248 7.229,-19.056 1.073,-0.145 2.143,-0.311 3.194,-0.51 -1.876,20.398 -14.747,25.321 -14.747,25.321 0,0 -12.871,-4.923 -14.746,-25.321 C -16.806,1.026 -4.015,0.336 0,0" /></g><g
         transform="translate(246.4287,541.4673)"
         id="g80"><path
           id="path82"
           style="opacity:1;fill:#ffffff;fill-opacity:1;fill-rule:nonzero;stroke:none"
           d="M 0,0 C -1.79,3.059 -3.453,5.179 -9.176,4.476 1.887,10.87 3.837,-5.563 14.387,-6.97 11.573,-0.64 4.412,5.307 4.412,5.307 c 9.4,-3.58 8.185,-10.167 17.84,-11.701 -5.371,17.136 -30.5,31.843 -39.388,3.644 0,0 8.312,5.563 17.136,2.75" /></g><g
         transform="translate(359.1182,537.501)"
         id="g36"><path
           id="path38"
           style="opacity:1;fill:#ffffff;fill-opacity:1;fill-rule:nonzero;stroke:none"
           d="m 0,0 c -13.942,-3.947 -34.12,-6.978 -34.12,-6.978 0,0 2.541,-3.522 8.058,-3.547 0.318,-10e-4 0.397,-0.435 0.098,-0.542 -6.618,-2.37 -13.634,-7.05 -13.634,-7.05 0,0 33.732,3.414 40.353,17.241 C 0.99,-0.386 0.523,0.148 0,0" /></g><g
         transform="translate(238.1162,345.1656)"
         id="g232"><path
           id="path234"
           style="opacity:1;fill:#0000ff;fill-opacity:1;fill-rule:nonzero;stroke:none"
           d="m 0,0 c 1.087,-1.726 1.854,-2.941 1.087,-5.307 -0.895,1.854 -1.431,5.425 -7.929,4.028 -11.525,-2.477 -18.575,6.209 -28.39,7.737 -5.946,-3.964 -13.3,-8.184 -21.484,-21.612 0,0 20.845,4.604 45.846,-0.959 -0.319,1.215 0,2.748 0,2.748 0,0 11.062,-20.332 19.631,-28.901 7.304,3.07 0.063,19.907 -1.152,25.364 C 6.395,-11.445 9.72,1.407 0,0" /></g><g
         transform="translate(318.875,258.2657)"
         id="g236"><path
           id="path238"
           style="opacity:1;fill:#0000ff;fill-opacity:1;fill-rule:nonzero;stroke:none"
           d="m 0,0 c -5.384,7.866 -9.502,11.111 -12.286,14.309 -0.964,1.107 -1.665,2.415 -2.052,3.83 -1.252,4.573 -5.094,17.607 -12.341,34.076 l -3.3,1.205 c -1.726,0.629 -3.306,1.258 -4.71,1.819 -2.97,1.181 -5.533,2.202 -7.068,2.202 -1.458,0 -3.054,-1.642 -3.813,-13.812 l -0.23,-3.752 c 5.778,-11.341 9.921,-10.281 15.684,-18.707 2.624,-4.351 1.089,-9.084 6.844,-11.447 -1.151,-0.768 -2.947,-0.384 -2.947,-0.384 0.706,-4.927 6.077,-6.077 8.571,-8.886 2.494,-2.816 3.261,-5.693 6.522,-9.085 3.261,-3.384 10.036,-6.453 12.085,-5.755 C 3.008,-13.681 6.23,-9.092 0,0" /></g><g
         transform="translate(238.4951,392.9532)"
         id="g252"><path
           id="path254"
           style="opacity:1;fill:#0000ff;fill-opacity:1;fill-rule:nonzero;stroke:none"
           d="m 0,0 c -0.748,-0.134 -1.501,-0.258 -2.258,-0.373 -1.61,-0.243 -2.6,-1.894 -2.014,-3.413 2.705,-7.018 6.044,-20.713 6.365,-35.819 2.157,0.706 4.274,1.503 6.362,2.319 -0.284,3.247 -1.322,13.327 -3.881,22.052 -0.113,0.384 0.433,0.601 0.613,0.243 3.798,-7.557 6.148,-17.795 6.807,-20.896 1.83,0.727 3.641,1.438 5.436,2.083 C 14.843,-20.853 9.16,-10.121 2.514,-0.987 1.939,-0.199 0.96,0.171 0,0" /></g><g
         transform="translate(235.8672,351.9888)"
         id="g248"><path
           id="path250"
           style="opacity:1;fill:#0000ff;fill-opacity:1;fill-rule:nonzero;stroke:none"
           d="m 0,0 c 0.482,12.51 -0.935,20.965 -5.229,37.057 -0.436,1.635 -1.937,2.751 -3.63,2.727 -0.853,-0.012 -1.704,-0.004 -2.548,0.025 -1.752,0.059 -3.32,-1.086 -3.73,-2.789 -1.918,-7.948 -3.852,-21.755 -4.875,-36.631 1.699,-0.509 3.424,-0.92 5.189,-1.201 0.919,-0.147 1.826,-0.239 2.727,-0.306 0.484,2.844 2.045,13.246 1.346,25.548 -0.021,0.376 0.509,0.495 0.642,0.143 3.388,-8.979 3.043,-22.43 2.9,-25.717 C -4.749,-0.979 -2.35,-0.569 0,0" /></g><g
         transform="translate(201.2954,359.0836)"
         id="g244"><path
           id="path246"
           style="opacity:1;fill:#0000ff;fill-opacity:1;fill-rule:nonzero;stroke:none"
           d="m 0,0 c 2.856,-1.668 5.703,-3.203 8.598,-4.483 0.55,11.337 3.311,23.047 7.202,35.255 0.437,1.372 -0.336,2.845 -1.726,3.22 -1.443,0.391 -2.837,0.877 -4.168,1.472 -1.179,0.528 -2.564,0.14 -3.243,-0.959 L -10.608,6.542 c 2.049,-1.282 4.058,-2.554 6.05,-3.791 1,2.469 4.931,11.859 9.72,19.134 0.211,0.321 0.708,0.078 0.594,-0.289 C 3.099,13.007 1.181,5.939 0,0" /></g><g
         transform="translate(255.2568,389.273)"
         id="g268"><path
           id="path270"
           style="opacity:1;fill:#0000ff;fill-opacity:1;fill-rule:nonzero;stroke:none"
           d="m 0,0 c -3.084,0 -5.979,0.573 -8.627,1.711 7.192,-10.418 12.347,-25.941 13.74,-30.4 1.693,0.476 3.375,0.85 5.054,1.086 -0.915,3.084 -3.758,12.16 -7.473,19.195 -0.185,0.351 0.293,0.666 0.55,0.363 5.294,-6.236 8.925,-14.446 10.658,-19.287 1.97,0.001 3.939,-0.236 5.916,-0.79 C 17.041,-19.929 10.115,-7.899 4.559,0.407 3.003,0.146 1.478,0 0,0" /></g><g
         transform="translate(187.0776,461.9776)"
         id="g228"><path
           id="path230"
           style="opacity:1;fill:#0000ff;fill-opacity:1;fill-rule:nonzero;stroke:none"
           d="m 0,0 c -0.183,4.217 -0.465,10.402 -0.752,15.45 -0.168,2.951 -2.453,5.354 -5.394,5.654 -4.037,0.413 -7.541,0.609 -9.676,0.701 -1.186,0.05 -2.159,-0.919 -2.114,-2.106 0.035,-0.89 0.078,-2.01 0.129,-3.276 2.142,-0.156 6.301,-0.602 11.168,-1.87 0.546,-0.142 0.488,-0.934 -0.072,-0.993 -4.32,-0.452 -8.669,-0.31 -10.972,-0.176 0.073,-1.759 0.154,-3.644 0.238,-5.508 2.243,-0.18 6.245,-0.648 10.875,-1.859 0.526,-0.138 0.469,-0.911 -0.07,-0.969 -4.116,-0.437 -8.269,-0.331 -10.663,-0.204 0.071,-1.483 0.143,-2.894 0.214,-4.146 0.055,-0.976 0.698,-1.817 1.625,-2.131 3.72,-1.26 7.716,-2.135 10.742,-2.69 C -2.19,-4.586 0.111,-2.571 0,0" /></g><g
         transform="translate(213.1406,480.2545)"
         id="g208"><path
           id="path210"
           style="opacity:1;fill:#0000ff;fill-opacity:1;fill-rule:nonzero;stroke:none"
           d="M 0,0 1.465,5.861 -3.1,2.202 C -2.141,1.627 -1.22,0.99 -0.33,0.292 -0.215,0.2 -0.107,0.107 0,0" /></g><g
         transform="translate(207.4585,456.9131)"
         id="g220"><path
           id="path222"
           style="opacity:1;fill:#0000ff;fill-opacity:1;fill-rule:nonzero;stroke:none"
           d="M 0,0 1.505,-0.088 C 2.28,-0.133 2.954,0.437 3.032,1.21 3.357,4.412 4.176,12.555 4.723,18.792 4.811,19.797 4.396,20.785 3.604,21.408 2.063,22.621 0.513,23.558 -1.001,24.277 -2.302,24.896 -3.813,23.992 -3.857,22.552 -4,17.848 -3.978,10.089 -2.815,2.551 -2.598,1.145 -1.421,0.083 0,0" /></g><g
         transform="translate(198.6309,457.4288)"
         id="g216"><path
           id="path218"
           style="opacity:1;fill:#0000ff;fill-opacity:1;fill-rule:nonzero;stroke:none"
           d="M 0,0 C 1.531,-0.089 2.732,1.267 2.489,2.781 1.233,10.602 1.23,18.732 1.384,23.5 c 0.043,1.312 -0.981,2.398 -2.292,2.463 -1.518,0.075 -2.82,-0.012 -3.805,-0.134 -1.191,-0.147 -2.089,-1.15 -2.103,-2.35 C -6.935,13.558 -3.48,4.674 -2.039,1.409 -1.679,0.593 -0.89,0.052 0,0" /></g><g
         transform="translate(233.0654,501.5997)"
         id="g292"><path
           id="path294"
           style="opacity:1;fill:#000000;fill-opacity:1;fill-rule:nonzero;stroke:none"
           d="M 0,0 C 0,2.494 -2.271,2.494 -5.5,2.174 -4.948,5.403 -0.512,5.02 1.822,4.284 1.311,6.33 -1.822,6.586 -7.322,5.02 v -5.468 c 0,0 4.796,-0.256 7.322,0.448" /></g><g
         transform="translate(223.0381,486.939)"
         id="g296"><path
           id="path298"
           style="opacity:1;fill:#000000;fill-opacity:1;fill-rule:nonzero;stroke:none"
           d="m 0,0 h 0.807 0.8 C 2.582,-0.004 4.404,0.663 4.784,2.965 3.846,3.246 2.486,3.361 0.803,3.359 -0.879,3.361 -2.239,3.246 -3.177,2.965 -2.797,0.663 -0.975,-0.004 0,0" /></g><g
         transform="translate(295.8145,421.2125)"
         id="g184"><path
           id="path186"
           style="opacity:1;fill:#ff0000;fill-opacity:1;fill-rule:nonzero;stroke:none"
           d="m 0,0 c -14.562,-22.993 -37.084,-34.844 -50.305,-26.471 -13.22,8.373 -12.133,33.8 2.429,56.792 14.562,22.992 37.084,34.844 50.305,26.471 C 15.649,48.419 14.562,22.992 0,0" /></g><g
         transform="translate(259.9922,458.524)"
         id="g300"><path
           id="path302"
           style="opacity:1;fill:#000000;fill-opacity:1;fill-rule:nonzero;stroke:none"
           d="m 0,0 c -0.071,0.057 -0.156,0.084 -0.24,0.084 -0.109,0 -0.214,-0.045 -0.29,-0.133 -2.594,-3.001 -5.009,-6.262 -7.181,-9.691 -6.269,-9.9 -10.148,-20.489 -10.923,-29.816 -0.782,-9.417 1.692,-16.443 6.966,-19.783 0.615,-0.391 1.295,-0.737 2.02,-1.03 0.166,-0.068 0.368,-0.004 0.466,0.148 0.1,0.156 0.075,0.36 -0.059,0.487 -8.179,7.719 -7.44,27.759 1.718,46.614 2.191,4.51 4.745,8.746 7.59,12.592 C 0.191,-0.361 0.161,-0.13 0,0 Z" /></g><g
         transform="translate(342.3477,520.7193)"
         id="g40"><path
           id="path42"
           style="opacity:1;fill:#ffffff;fill-opacity:1;fill-rule:nonzero;stroke:none"
           d="m 0,0 c -9.223,-2.591 -24.777,-4.721 -24.777,-4.721 0,0 2.249,-2.702 6.32,-3.028 0.311,-0.024 0.37,-0.449 0.075,-0.549 -5.603,-1.895 -10.509,-4.163 -13.269,-6.964 2.303,0.314 24.213,2.807 32.352,14.29 C 1.046,-0.485 0.573,0.161 0,0" /></g><g
         transform="translate(325.8164,505.4039)"
         id="g44"><path
           id="path46"
           style="opacity:1;fill:#ffffff;fill-opacity:1;fill-rule:nonzero;stroke:none"
           d="m 0,0 c -7.751,-1.989 -17.276,-2.926 -17.276,-2.926 0,0 1.322,-2.537 3.815,-3.078 0.277,-0.061 0.284,-0.457 0.013,-0.543 -4.816,-1.52 -9.291,-3.505 -11.5,-6.069 4.255,0.581 18.862,1.383 25.638,11.649 C 1.01,-0.484 0.561,0.144 0,0" /></g><g
         transform="translate(315.582,541.084)"
         id="g48"><path
           id="path50"
           style="opacity:1;fill:#ffffff;fill-opacity:1;fill-rule:nonzero;stroke:none"
           d="m 0,0 c 0.255,-0.047 0.315,-0.383 0.092,-0.516 -2.068,-1.23 -8.834,-5.837 -10.982,-10.136 16.265,2.945 21.188,5.618 29.468,12.977 0.225,0.201 0.293,0.544 0.137,0.802 C 13.441,11.834 -5.613,5.981 -5.613,5.981 -5.372,1.499 -1.668,0.309 0,0" /></g><g
         transform="translate(327.1494,526.3487)"
         id="g52"><path
           id="path54"
           style="opacity:1;fill:#ffffff;fill-opacity:1;fill-rule:nonzero;stroke:none"
           d="m 0,0 c -4.742,4.913 -23.312,0.655 -23.312,0.655 0.525,-2.909 2.963,-3.759 4.447,-4.005 0.277,-0.046 0.321,-0.424 0.062,-0.533 -1.924,-0.812 -6.018,-2.774 -9.351,-5.951 15.325,2.178 22.95,6.002 27.991,8.848 C 0.193,-0.784 0.285,-0.294 0,0" /></g><g
         transform="translate(318.0664,512.7759)"
         id="g56"><path
           id="path58"
           style="opacity:1;fill:#ffffff;fill-opacity:1;fill-rule:nonzero;stroke:none"
           d="m 0,0 c -2.843,4.336 -20.858,0.365 -20.858,0.365 0.963,-2.704 2.726,-3.57 3.926,-3.838 0.276,-0.062 0.303,-0.44 0.038,-0.538 -2.361,-0.877 -7.514,-2.99 -9.762,-5.478 14.743,1.614 19.974,4.636 26.433,8.621 C 0.072,-0.686 0.189,-0.29 0,0" /></g><g
         transform="translate(307.6943,499.7388)"
         id="g60"><path
           id="path62"
           style="opacity:1;fill:#ffffff;fill-opacity:1;fill-rule:nonzero;stroke:none"
           d="m 0,0 c -5.101,3.427 -18.157,0.622 -18.157,0.622 0.268,-2.424 2.22,-3.383 3.502,-3.754 0.272,-0.079 0.274,-0.462 0.002,-0.542 -2.445,-0.722 -8.147,-2.581 -9.555,-4.59 13.502,0.88 18.357,4.557 24.122,7.14 C 0.382,-0.915 0.426,-0.286 0,0" /></g><g
         transform="translate(289.0381,496.9713)"
         id="g64"><path
           id="path66"
           style="opacity:1;fill:#ffffff;fill-opacity:1;fill-rule:nonzero;stroke:none"
           d="m 0,0 c -1.292,4.429 -14.834,0.899 -14.834,0.899 0.556,-1.836 1.752,-2.525 2.624,-2.783 0.255,-0.075 0.268,-0.431 0.02,-0.528 -2.053,-0.798 -6.655,-2.749 -8.157,-4.725 6.061,0.767 14.878,3.706 20.031,6.407 C -0.053,-0.592 0.083,-0.286 0,0" /></g><g
         transform="translate(283.4902,506.1221)"
         id="g68"><path
           id="path70"
           style="opacity:1;fill:#ffffff;fill-opacity:1;fill-rule:nonzero;stroke:none"
           d="M 0,0 C -1.917,-0.765 -6.311,-2.735 -7.538,-5.139 1.041,-3.593 7.661,-0.696 13.374,2.648 13.66,2.815 13.779,3.18 13.63,3.476 11.272,8.155 -3.383,3.647 -3.383,3.647 -3.524,1.715 -1.341,0.866 -0.036,0.532 0.229,0.465 0.255,0.102 0,0" /></g><g
         transform="translate(289.123,519.1866)"
         id="g72"><path
           id="path74"
           style="opacity:1;fill:#ffffff;fill-opacity:1;fill-rule:nonzero;stroke:none"
           d="M 0,0 C -2.077,-0.954 -6.635,-3.298 -7.601,-5.9 4.908,-3.415 10.06,-0.342 14.39,2.867 14.657,3.065 14.728,3.439 14.552,3.722 11.264,9.001 -4.37,3.355 -4.37,3.355 -4.123,1.341 -1.592,0.725 -0.082,0.536 0.199,0.5 0.258,0.118 0,0" /></g><g
         transform="translate(260.8691,486.1705)"
         id="g76"><path
           id="path78"
           style="opacity:1;fill:#ffffff;fill-opacity:1;fill-rule:nonzero;stroke:none"
           d="m 0,0 c 17.381,8.607 15.558,44.869 33.011,49.569 0.317,0.086 0.508,-0.353 0.223,-0.52 -6.401,-3.767 -8.783,-9.059 -8.783,-9.059 8.706,2.16 18.442,6.77 25.017,13.558 0.211,0.217 0.249,0.564 0.07,0.808 C 46.057,59.119 36.33,58.05 28.447,52.918 20.334,47.637 16.229,39.278 14.138,31.643 12.045,24.008 7.354,6.074 0,0" /></g><g
         transform="translate(266.3135,487.0587)"
         id="g168"><path
           id="path170"
           style="opacity:1;fill:#ffffff;fill-opacity:1;fill-rule:nonzero;stroke:none"
           d="m 0,0 c 0,0 -1.685,-2.315 -3.277,-4.972 1.265,0.498 2.676,0.53 3.964,0.065 1.48,-0.533 2.886,-1.167 4.217,-1.886 3.845,1.428 7.124,3.241 9.49,4.745 0.286,0.182 0.387,0.563 0.21,0.851 C 12.309,2.538 0,0 0,0" /></g><g
         transform="translate(312.2695,492.337)"
         id="g172"><path
           id="path174"
           style="opacity:1;fill:#ffffff;fill-opacity:1;fill-rule:nonzero;stroke:none"
           d="m 0,0 c -5.071,-1.296 -13.531,-2.025 -13.531,-2.025 0,0 -1.101,-2.654 0.779,-3.627 0.21,-0.108 0.183,-0.417 -0.034,-0.51 -2.161,-0.919 -3.8,-1.721 -5.519,-2.761 1.282,-0.322 2.51,-0.772 3.693,-1.327 5.386,1.748 11.367,4.596 15.244,9.212 C 1.033,-0.56 0.606,0.155 0,0" /></g><g
         transform="translate(296.9131,487.3726)"
         id="g176"><path
           id="path178"
           style="opacity:1;fill:#ffffff;fill-opacity:1;fill-rule:nonzero;stroke:none"
           d="m 0,0 c -1.933,4.14 -15.177,1.656 -15.177,1.656 -0.073,-2.361 1.503,-3.36 2.478,-3.751 0.233,-0.094 0.231,-0.426 -0.002,-0.52 -0.91,-0.368 -2.536,-1.067 -4.246,-1.978 4.252,1.254 8.301,1.594 12.012,1.027 1.723,0.889 3.278,1.827 4.704,2.765 C 0.031,-0.628 0.133,-0.285 0,0" /></g><g
         transform="translate(211.5806,424.5816)"
         id="g264"><path
           id="path266"
           style="opacity:1;fill:#0000ff;fill-opacity:1;fill-rule:nonzero;stroke:none"
           d="m 0,0 c -2.558,-3.325 -3.005,-8.824 -2.941,-15.602 -3.134,5.371 -1.087,14.067 -1.087,14.067 0,0 -1.343,-0.703 -2.75,-1.534 C -3.667,3.065 3.645,2.366 11.19,8.952 10.039,4.092 3.645,1.215 0,0 m 21.624,-6.492 c 0.144,3.375 0.638,6.87 1.448,10.419 -1.07,0.891 -2.158,2.308 -2.93,4.577 1.417,-0.66 2.563,-1.252 3.636,-1.752 2.025,7.399 5.404,14.965 9.952,22.145 0.037,0.059 0.076,0.116 0.114,0.174 -0.23,-0.003 -0.46,-0.005 -0.683,-0.005 -0.477,0 -0.938,0.007 -1.38,0.021 -2.117,0.065 -3.965,1.546 -4.492,3.601 -0.455,1.768 -0.836,3.466 -1.163,5.185 -0.901,-0.776 -2.064,-1.216 -3.258,-1.216 L 22.71,36.659 C 17.383,36.823 8.758,37.697 4.351,38.378 3.497,38.51 2.734,38.891 2.123,39.434 1.868,36.851 1.644,34.627 1.507,33.277 1.295,31.198 -0.441,29.631 -2.531,29.631 c 0,0 -0.159,0.002 -0.239,0.007 l -1.505,0.088 c -1.859,0.108 -3.489,1.147 -4.438,2.658 -0.095,-0.137 -0.195,-0.272 -0.305,-0.4 -0.948,-1.113 -2.33,-1.752 -3.789,-1.752 v 0 c -0.097,0 -0.195,0.003 -0.294,0.009 -1.88,0.11 -3.518,1.245 -4.275,2.962 -0.918,2.078 -2.55,6.199 -3.701,11.376 l -0.407,-0.055 c 0.767,-13.768 0.543,-21.313 26.551,-30.776 -15.042,1.918 -21.82,8.312 -21.82,8.312 0,0 2.51,-9.847 8.545,-15.602 -2.406,1.151 -2.151,0.959 -4.197,2.366 3.78,-17.538 -1.966,-44.792 40.049,-36.91 -4.293,5.092 -6.407,12.534 -6.02,21.594" /></g><g
         transform="translate(192.9058,389.6177)"
         id="g240"><path
           id="path242"
           style="opacity:1;fill:#0000ff;fill-opacity:1;fill-rule:nonzero;stroke:none"
           d="m 0,0 c 0.284,0.209 0.656,-0.114 0.492,-0.426 -3.588,-6.841 -10.17,-15.675 -11.973,-18.054 1.717,-0.955 3.409,-1.927 5.056,-2.922 L 11.894,6.161 C 12.583,7.199 12.47,8.59 11.586,9.469 11.01,10.043 10.46,10.657 9.941,11.312 9.063,12.419 7.468,12.64 6.325,11.809 -4.409,4 -15.497,-7.246 -20.585,-13.952 c 1.921,-0.826 3.77,-1.727 5.585,-2.655 1.752,2.443 8.843,12.072 15,16.607" /></g></g></g></svg>